<svg width="27" height="24" viewBox="0 0 27 24" fill="none" xmlns="http://www.w3.org/2000/svg">
  <path d="M17.8253 15.7664C19.7858 15.7992 21.3852 14.2024 21.3852 12.2296H21.3862C21.3862 10.7881 20.533 9.54757 19.3089 8.99783C19.1294 8.91695 18.9423 8.85028 18.7488 8.8011C18.1475 8.6459 17.5852 8.3519 17.1624 7.89177C16.5817 7.26006 16.227 6.41412 16.227 5.48512V5.47966C16.227 5.18675 16.2876 4.89931 16.3763 4.6217C16.4282 4.45995 16.4682 4.29382 16.4963 4.12332C16.5482 3.8009 16.5601 3.46537 16.5179 3.11235C16.3179 1.45218 14.9694 0.138466 13.3192 0.0105925C11.2625 -0.147884 9.54309 1.49262 9.54309 3.53969C9.54309 5.02172 10.4449 6.29062 11.7242 6.81632C11.8518 6.86878 11.9827 6.91469 12.1178 6.95185C12.864 7.15732 13.5452 7.57154 14.0091 8.1978C14.4471 8.78798 14.7055 9.52134 14.7055 10.3148V10.3203C14.7055 10.5902 14.6472 10.8558 14.5628 11.1116C14.4979 11.305 14.4503 11.5072 14.4211 11.7138C14.3855 11.9586 14.3746 12.2122 14.3919 12.4712C14.512 14.2909 16.0216 15.7369 17.8253 15.7664Z" fill="white" />
  <path d="M7.00079 3.5386C7.00079 5.4925 5.43361 7.07644 3.50039 7.07644C1.56718 7.07644 0 5.4925 0 3.5386C0 1.5847 1.56718 0.000756297 3.50039 0.000756297C5.43361 0.000756297 7.00079 1.5847 7.00079 3.5386Z" fill="white" />
  <path d="M16.5871 20.4628C16.5871 22.4355 14.9878 24.0323 13.0273 23.9995C11.2235 23.97 9.71395 22.524 9.59392 20.7043C9.57662 20.4453 9.58744 20.1917 9.62312 19.9469C9.65232 19.7403 9.6999 19.5381 9.76478 19.3447C9.84913 19.0889 9.90752 18.8233 9.90752 18.5534V18.5479C9.90752 17.7545 9.64907 17.0211 9.21112 16.4309C8.74721 15.8047 8.06595 15.3904 7.3198 15.185C7.18463 15.1478 7.05379 15.1019 6.92618 15.0494C5.64693 14.5237 4.74506 13.2548 4.74506 11.7728C4.74506 9.72573 6.46336 8.08522 8.5212 8.24479C10.1714 8.37267 11.5198 9.68638 11.7199 11.3466C11.7621 11.6996 11.7502 12.0351 11.6983 12.3575C11.6702 12.528 11.6301 12.6941 11.5782 12.8559C11.4896 13.1335 11.429 13.421 11.429 13.7139V13.7193C11.429 14.6483 11.7837 15.4943 12.3644 16.126C12.7872 16.5861 13.3495 16.8801 13.9508 17.0353C14.1443 17.0845 14.3314 17.1511 14.5109 17.232C15.735 17.7818 16.5882 19.0223 16.5882 20.4638L16.5871 20.4628Z" fill="white" />
  <path d="M26.087 3.5386C26.087 5.4925 24.5198 7.07644 22.5866 7.07644C20.6533 7.07644 19.0862 5.4925 19.0862 3.5386C19.0862 1.5847 20.6533 0.000756297 22.5866 0.000756297C24.5198 0.000756297 26.087 1.5847 26.087 3.5386Z" fill="white" />
</svg>